<svg width="21" height="29" viewBox="0 0 21 29" fill="none" xmlns="http://www.w3.org/2000/svg">
<path d="M10.5 28.25C10.1792 28.25 9.90417 28.1583 9.675 27.975C9.44583 27.7917 9.27396 27.551 9.15938 27.2531C8.72396 25.9698 8.17396 24.7667 7.50938 23.6437C6.86771 22.5208 5.9625 21.2031 4.79375 19.6906C3.625 18.1781 2.67396 16.7344 1.94063 15.3594C1.23021 13.9844 0.875 12.3229 0.875 10.375C0.875 7.69375 1.80313 5.425 3.65938 3.56875C5.53854 1.68958 7.81875 0.75 10.5 0.75C13.1813 0.75 15.45 1.68958 17.3063 3.56875C19.1854 5.425 20.125 7.69375 20.125 10.375C20.125 12.4604 19.724 14.2021 18.9219 15.6C18.1427 16.975 17.2375 18.3385 16.2063 19.6906C14.9688 21.3406 14.0292 22.7156 13.3875 23.8156C12.7688 24.8927 12.2531 26.0385 11.8406 27.2531C11.726 27.574 11.5427 27.826 11.2906 28.0094C11.0615 28.1698 10.7979 28.25 10.5 28.25ZM10.5 23.3344C10.8896 22.5552 11.325 21.7875 11.8063 21.0312C12.3104 20.275 13.0438 19.2667 14.0063 18.0062C14.9917 16.7229 15.7937 15.5427 16.4125 14.4656C17.0542 13.3656 17.375 12.0021 17.375 10.375C17.375 8.47291 16.699 6.85729 15.3469 5.52812C14.0177 4.17604 12.4021 3.5 10.5 3.5C8.59792 3.5 6.97083 4.17604 5.61875 5.52812C4.28958 6.85729 3.625 8.47291 3.625 10.375C3.625 12.0021 3.93438 13.3656 4.55313 14.4656C5.19479 15.5427 6.00833 16.7229 6.99375 18.0062C7.95625 19.2667 8.67813 20.275 9.15938 21.0312C9.66354 21.7875 10.1104 22.5552 10.5 23.3344ZM10.5 13.8125C11.4625 13.8125 12.276 13.4802 12.9406 12.8156C13.6052 12.151 13.9375 11.3375 13.9375 10.375C13.9375 9.4125 13.6052 8.59896 12.9406 7.93437C12.276 7.26979 11.4625 6.9375 10.5 6.9375C9.5375 6.9375 8.72396 7.26979 8.05938 7.93437C7.39479 8.59896 7.0625 9.4125 7.0625 10.375C7.0625 11.3375 7.39479 12.151 8.05938 12.8156C8.72396 13.4802 9.5375 13.8125 10.5 13.8125Z" fill="#FF7300"/>
</svg>
